<mxfile host="app.diagrams.net" modified="2024-12-24T09:47:12.185Z" agent="Mozilla/5.0 (X11; Ubuntu; Linux x86_64; rv:133.0) Gecko/20100101 Firefox/133.0" version="24.6.2" etag="3zDmE0pZ7ZKl7BJi5z6Z" type="github">
  <diagram name="Page-1" id="JP6AwyGPiSkUoQjy_DrU">
    <mxGraphModel>
      <root>
        <mxCell id="0" />
        <mxCell id="1" parent="0" />
      </root>
    </mxGraphModel>
  </diagram>
</mxfile>
